<svg width="22" height="24" viewBox="0 0 22 24" fill="none" xmlns="http://www.w3.org/2000/svg">
<path d="M19.4531 8.31002C20.189 8.22013 20.7217 7.4799 20.6413 6.65507C20.561 5.832 19.8991 5.23629 19.1616 5.32617C18.4257 5.41606 17.893 6.15629 17.9734 6.98112C18.0538 7.80419 18.7156 8.3999 19.4531 8.31002Z" fill="#DC5F40"/>
<path d="M20.9756 15.4691C21.0339 12.1275 19.7779 8.07556 16.4939 10.3773C16.2181 10.4972 16.0605 10.4549 15.9155 10.2258C15.5011 9.38683 15.1828 8.52851 14.7888 7.64728C11.8246 -0.88126 8.43973 3.99547 4.86414 9.04315C-3.12068 20.5873 0.640869 25.7002 13.2272 15.5625C13.6668 15.2135 14.5477 14.4839 14.8645 14.4539C15.1985 14.394 15.3372 14.6971 15.5893 15.3316C15.8336 15.982 16.2402 16.9037 16.6121 17.5611C18.7599 22.2228 21.1395 21.1424 20.9772 15.4885V15.4691H20.9756ZM11.5111 13.7313C9.92733 14.8381 8.42397 16.1934 6.68424 17.0024C5.92626 17.3567 4.82159 16.9654 4.54897 16.2798C4.2401 15.217 5.34477 13.6502 5.88686 12.5469C6.51562 11.2903 7.34924 10.1729 8.1482 9.03434C8.92351 7.91165 9.97617 6.24613 11.4354 6.97402C12.6063 7.71778 13.0869 9.77457 13.7566 11.0153C14.0592 11.5529 14.0497 11.9336 13.5203 12.2579C12.8789 12.7144 12.1839 13.2343 11.5237 13.7242L11.5111 13.7331V13.7313ZM20.0931 15.9326C20.0584 16.5724 19.9497 18.9922 19.2201 17.8396C18.5425 16.4155 17.7987 14.6407 17.1353 13.1232C16.8768 12.3478 18.4889 12.034 18.9081 12.1662C20.0789 12.6491 20.1199 14.7147 20.0931 15.922V15.9344V15.9326Z" fill="#DC5F40"/>
</svg>
