<svg width="168" height="32" viewBox="0 0 168 32" fill="none" xmlns="http://www.w3.org/2000/svg">
<g clip-path="url(#clip0_14411_5465)">
<path d="M3.79513 26.9895C3.61399 27.3937 3.43285 27.6616 3.25403 27.7956C3.07289 27.9295 2.80118 27.9977 2.44123 27.9977H0.6786C0.225751 27.9977 0.000488281 27.852 0.000488281 27.5606C0.000488281 27.4478 0.0562235 27.2574 0.170016 26.9895L10.3672 5.68021C10.7063 4.98698 10.9548 4.53109 11.1127 4.31959C11.2706 4.10575 11.4634 4 11.6886 4C11.893 4 12.0672 4.10575 12.2135 4.31959C12.3598 4.53344 12.6036 4.98698 12.9427 5.68021L23.2421 26.9895C23.3559 27.2574 23.4116 27.4501 23.4116 27.5606C23.4116 27.852 23.1747 27.9977 22.701 27.9977H20.8036C20.4414 27.9977 20.1766 27.9295 20.0071 27.7956C19.8376 27.6616 19.6518 27.3914 19.4474 26.9895L11.6213 10.2509L3.79513 26.9895Z" fill="black"/>
<path d="M40.5222 24.8957C40.636 24.9991 40.6918 25.1989 40.6918 25.495V27.2433C40.6918 27.5418 40.636 27.7415 40.5222 27.8426C40.4084 27.946 40.218 27.9977 39.9463 27.9977H27.1063C26.8346 27.9977 26.6442 27.946 26.5304 27.8426C26.4166 27.7392 26.3608 27.5394 26.3608 27.2433V4.75433C26.3608 4.45824 26.4166 4.25614 26.5304 4.1551C26.6418 4.0517 26.8346 4 27.104 4H39.9115C40.1832 4 40.3736 4.0517 40.4874 4.1551C40.6012 4.25849 40.6569 4.45824 40.6569 4.75433V6.50269C40.6569 6.80114 40.6012 7.00088 40.4874 7.10193C40.3736 7.20533 40.1832 7.25703 39.9115 7.25703H30.1532C29.9952 7.25703 29.8884 7.28523 29.8304 7.34162C29.7746 7.39802 29.7468 7.49672 29.7468 7.63302V13.9074C29.7468 14.0672 29.7746 14.1753 29.8304 14.234C29.8861 14.2904 29.9929 14.3186 30.1532 14.3186H38.7596C39.0313 14.3186 39.2217 14.3703 39.3355 14.4737C39.4493 14.5771 39.5051 14.7769 39.5051 15.0729V16.7861C39.5051 17.061 39.4493 17.2537 39.3355 17.3688C39.2217 17.484 39.0313 17.5404 38.7596 17.5404H30.1532C29.9952 17.5404 29.8884 17.5686 29.8304 17.625C29.7746 17.6814 29.7468 17.7801 29.7468 17.9164V24.3623C29.7468 24.4986 29.7746 24.5973 29.8304 24.6537C29.8861 24.7101 29.9929 24.7383 30.1532 24.7383H39.944C40.2157 24.7383 40.4061 24.79 40.5199 24.8934L40.5222 24.8957Z" fill="black"/>
<path d="M48.7197 27.8449C48.6059 27.9483 48.4155 28 48.1438 28H46.2464C45.9747 28 45.7843 27.9483 45.6705 27.8449C45.5567 27.7415 45.501 27.5418 45.501 27.2457V4.75433C45.501 4.45824 45.5567 4.25614 45.6705 4.1551C45.7843 4.0517 45.977 4 46.2464 4H52.7187C59.1561 4 62.3748 6.47919 62.3748 11.4399C62.3748 13.0849 61.9684 14.4408 61.1556 15.503C60.3428 16.5652 59.2118 17.35 57.7674 17.8506L63.594 26.9707C63.7752 27.2222 63.8657 27.4384 63.8657 27.6217C63.8657 27.758 63.803 27.8567 63.6799 27.9131C63.5545 27.9695 63.3688 27.9977 63.1203 27.9977H61.1208C60.7376 27.9977 60.4543 27.9413 60.2731 27.8261C60.092 27.711 59.8783 27.4619 59.6298 27.0718L53.3968 17.061C53.2621 16.8777 53.1924 16.7179 53.1924 16.5816C53.1924 16.3983 53.362 16.2949 53.701 16.2738C57.1125 15.9095 58.817 14.3656 58.817 11.6444C58.817 10.0911 58.2806 8.95369 57.2077 8.23225C56.1348 7.51317 54.5812 7.15128 52.5492 7.15128H49.2956C49.1377 7.15128 49.0309 7.17948 48.9728 7.23588C48.9171 7.29227 48.8892 7.40272 48.8892 7.56252V27.241C48.8892 27.5394 48.8335 27.7392 48.7197 27.8402V27.8449Z" fill="black"/>
<path d="M84.599 22.4471C84.8474 22.2473 85.0402 22.1486 85.1749 22.1486C85.2655 22.1486 85.356 22.1815 85.4466 22.2473C85.5372 22.3131 85.6161 22.3907 85.6835 22.48L86.6658 23.81C86.7796 23.944 86.8353 24.0991 86.8353 24.2753C86.8353 24.3646 86.8005 24.4586 86.7332 24.5573C86.6658 24.656 86.5636 24.7618 86.4289 24.8722C85.2306 25.8686 83.8814 26.6394 82.3812 27.1822C80.8786 27.7251 79.3041 27.9977 77.6553 27.9977C75.4421 27.9977 73.4148 27.4877 71.5732 26.4678C69.7316 25.448 68.2755 24.0309 67.2026 22.2121C66.1297 20.3956 65.5933 18.3558 65.5933 16.0952C65.5933 13.8345 66.1297 11.7525 67.2026 9.91247C68.2755 8.07246 69.7432 6.62724 71.608 5.57446C73.4705 4.52639 75.5536 4 77.8573 4C79.4829 4 81.0366 4.27729 82.5159 4.83188C83.9952 5.38647 85.3119 6.1408 86.4638 7.09253C86.689 7.24763 86.8028 7.41447 86.8028 7.59072C86.8028 7.74581 86.7355 7.92206 86.5985 8.12181L85.6161 9.41898C85.435 9.66337 85.2538 9.78557 85.075 9.78557C84.9403 9.78557 84.7476 9.69627 84.4991 9.52002C83.5284 8.78919 82.4764 8.21345 81.3477 7.79046C80.2191 7.36982 79.0324 7.15833 77.79 7.15833C76.1853 7.15833 74.7245 7.53432 73.4032 8.28865C72.0818 9.04298 71.0367 10.0958 70.268 11.447C69.4994 12.7982 69.1162 14.328 69.1162 16.0341C69.1162 17.7401 69.4947 19.1689 70.2518 20.5225C71.0089 21.8737 72.0469 22.9335 73.3683 23.6973C74.6897 24.461 76.1644 24.844 77.79 24.844C80.3422 24.844 82.6111 24.0474 84.599 22.4518V22.4471Z" fill="black"/>
<path d="M109.401 27.8449C109.287 27.9483 109.097 28 108.825 28H106.928C106.656 28 106.466 27.9483 106.352 27.8449C106.238 27.7415 106.183 27.5418 106.183 27.2457V17.6814C106.183 17.5451 106.155 17.4464 106.099 17.39C106.043 17.3336 105.934 17.3054 105.776 17.3054H94.5617C94.4038 17.3054 94.297 17.3336 94.2389 17.39C94.1832 17.4464 94.1553 17.5451 94.1553 17.6814V27.2457C94.1553 27.5441 94.0996 27.7439 93.9858 27.8449C93.872 27.9483 93.6816 28 93.4099 28H91.5125C91.2408 28 91.0504 27.9483 90.9366 27.8449C90.8228 27.7415 90.7671 27.5418 90.7671 27.2457V4.75433C90.7671 4.45824 90.8228 4.25614 90.9366 4.1551C91.0481 4.0517 91.2408 4 91.5102 4H93.4075C93.6793 4 93.872 4.0517 93.9835 4.1551C94.0973 4.25849 94.153 4.45824 94.153 4.75433V13.6677C94.153 13.804 94.1809 13.9074 94.2366 13.9755C94.2923 14.0437 94.3992 14.0789 94.5594 14.0789H105.774C105.932 14.0789 106.039 14.0437 106.097 13.9755C106.152 13.9074 106.18 13.804 106.18 13.6677V4.75433C106.18 4.45824 106.236 4.25614 106.35 4.1551C106.464 4.0517 106.656 4 106.928 4H108.825C109.095 4 109.287 4.0517 109.401 4.1551C109.515 4.25849 109.571 4.45824 109.571 4.75433V27.2457C109.571 27.5441 109.515 27.7439 109.401 27.8449Z" fill="black"/>
<path d="M164.252 4.1504C164.366 4.04935 164.558 4 164.828 4H166.725C166.997 4 167.189 4.04935 167.301 4.1504C167.415 4.24909 167.47 4.44414 167.47 4.73318V26.9049C167.47 27.6358 167.245 28.0023 166.792 28.0023C166.611 28.0023 166.421 27.9295 166.216 27.7862C166.012 27.6428 165.731 27.3702 165.369 26.9707L151.614 11.0498V26.9049C151.614 27.194 151.558 27.3867 151.444 27.4877C151.33 27.5864 151.14 27.6381 150.868 27.6381H148.971C148.699 27.6381 148.509 27.5888 148.395 27.4877C148.281 27.389 148.226 27.194 148.226 26.9049V5.09742C148.226 4.72143 148.281 4.44414 148.395 4.26554C148.509 4.0893 148.69 4 148.939 4C149.12 4 149.31 4.07285 149.514 4.2162C149.719 4.35954 149.988 4.63214 150.327 5.03163L164.082 20.9525V4.73083C164.082 4.44414 164.138 4.24909 164.252 4.14805V4.1504Z" fill="black"/>
<path d="M143.732 18.7082C143.72 18.6518 143.704 18.4944 143.699 18.4192C143.704 18.4356 143.73 18.6753 143.732 18.7082Z" fill="#DC5F40"/>
<path d="M141.613 11.08C142.698 10.9602 143.483 9.9732 143.364 8.87342C143.246 7.776 142.271 6.98171 141.184 7.10156C140.099 7.22141 139.314 8.20839 139.433 9.30816C139.551 10.4056 140.527 11.1999 141.613 11.08Z" fill="#DC5F40"/>
<path d="M143.857 20.6254C143.943 16.1699 142.092 10.7674 137.252 13.8364C136.846 13.9962 136.613 13.9398 136.4 13.6343C135.789 12.5158 135.32 11.3713 134.739 10.1964C130.371 -1.17501 125.383 5.32729 120.114 12.0575C108.346 27.4497 113.89 34.2669 132.438 20.75C133.086 20.2847 134.384 19.3118 134.851 19.2719C135.343 19.192 135.548 19.5962 135.919 20.4421C136.279 21.3093 136.878 22.5383 137.426 23.4148C140.592 29.6304 144.098 28.1899 143.859 20.6513V20.6254H143.857ZM129.909 18.3084C127.575 19.7842 125.36 21.5913 122.796 22.6699C121.679 23.1422 120.051 22.6205 119.649 21.7064C119.194 20.2894 120.822 18.2003 121.621 16.7292C122.547 15.0537 123.776 13.5638 124.953 12.0458C126.096 10.5489 127.647 8.32817 129.798 9.2987C131.523 10.2904 132.231 13.0328 133.218 14.6871C133.664 15.4039 133.65 15.9114 132.87 16.3438C131.925 16.9525 130.901 17.6457 129.928 18.299L129.909 18.3107V18.3084ZM142.556 21.2435C142.505 22.0965 142.345 25.323 141.27 23.7861C140.271 21.8874 139.175 19.521 138.197 17.4977C137.816 16.4637 140.192 16.0454 140.81 16.2216C142.535 16.8655 142.596 19.6197 142.556 21.2294V21.2458V21.2435Z" fill="#DC5F40"/>
</g>
<defs>
<clipPath id="clip0_14411_5465">
<rect width="168" height="32" fill="white"/>
</clipPath>
</defs>
</svg>
