<svg width="52" height="53" viewBox="0 0 52 53" fill="none" xmlns="http://www.w3.org/2000/svg">
<path d="M46.9674 18.505C48.7362 18.3103 50.0164 16.7064 49.8232 14.9193C49.63 13.136 48.0393 11.8453 46.2667 12.04C44.4979 12.2348 43.2177 13.8386 43.4109 15.6258C43.604 17.4091 45.1948 18.6998 46.9674 18.505Z" fill="#DC5F40"/>
<path d="M50.6274 34.0163C50.7676 26.7761 47.7489 17.997 39.8556 22.9842C39.1928 23.2439 38.8141 23.1522 38.4656 22.6558C37.4695 20.8381 36.7044 18.9784 35.7575 17.0691C28.6331 -1.4094 20.4974 9.15684 11.9034 20.0935C-7.28813 45.1057 1.75278 56.1837 32.004 34.2187C33.0607 33.4626 35.178 31.8817 35.9393 31.8168C36.7422 31.687 37.0756 32.3438 37.6816 33.7185C38.2686 35.1276 39.2458 37.1247 40.1397 38.5491C45.3021 48.6495 51.0214 46.3086 50.6312 34.0583V34.0163H50.6274ZM27.8794 30.2511C24.0729 32.6493 20.4595 35.5858 16.2781 37.3386C14.4562 38.1061 11.8012 37.2584 11.1459 35.7729C10.4036 33.4703 13.0586 30.0755 14.3616 27.685C15.8728 24.9623 17.8764 22.5413 19.7967 20.0744C21.6602 17.6419 24.1903 14.0333 27.6975 15.6104C30.5117 17.2219 31.6669 21.6782 33.2766 24.3666C34.0038 25.5313 33.9811 26.3561 32.7085 27.0587C31.167 28.0478 29.4966 29.1743 27.9096 30.2359L27.8794 30.255V30.2511ZM48.5064 35.0206C48.4231 36.4068 48.1617 41.6498 46.4081 39.1524C44.7794 36.067 42.9917 32.2216 41.3972 28.9337C40.776 27.2535 44.6507 26.5738 45.6582 26.8602C48.4723 27.9065 48.5708 32.3819 48.5064 34.9977V35.0245V35.0206Z" fill="#DC5F40"/>
</svg>
